# xmcd
#
# Track frame offsets:
#	150
#	13745
#	30886
#	44445
#	57669
#	73916
#
# Disc length: 1180 seconds
#
# Revision: 0
# Processed by: cddbd v1.5.2PL0 Copyright (c) Steve Scherf et al.
# Submitted via: EasyCDDAExtractor 9.1.3.1
#
DISCID=4f049a06
DTITLE=Taylor Swift - Beautiful Eyes (EP)
DYEAR=2008
DGENRE=Country
TTITLE0=Beautiful Eyes
TTITLE1=Should've Said No (Alternate Version)
TTITLE2=Teardrops On My Guitar (Acoustic Version)
TTITLE3=Picture To Burn (Radio Edit)
TTITLE4=I'm Only Me When I'm With You
TTITLE5=I Heart (questionmark)
EXTD=
EXTT0=
EXTT1=
EXTT2=
EXTT3=
EXTT4=
EXTT5=
PLAYORDER=
